<?xml version="1.0" standalone="no"?>
<!DOCTYPE svg PUBLIC "-//W3C//DTD SVG 20010904//EN"
 "http://www.w3.org/TR/2001/REC-SVG-20010904/DTD/svg10.dtd">
<svg version="1.0" xmlns="http://www.w3.org/2000/svg"
 width="3840.000000pt" height="2160.000000pt" viewBox="0 0 3840.000000 2160.000000"
 preserveAspectRatio="xMidYMid meet">

<g transform="translate(0.000000,2160.000000) scale(0.100000,-0.100000)"
fill="#000000" stroke="none">
<path d="M0 10800 l0 -10800 19200 0 19200 0 0 10800 0 10800 -19200 0 -19200
0 0 -10800z m23093 5993 c213 -224 417 -502 557 -759 290 -532 374 -1099 252
-1694 l-18 -84 -49 68 c-76 104 -406 518 -503 629 l-85 99 -91 -99 c-238 -258
-1308 -1353 -1713 -1753 -856 -847 -1519 -1458 -1549 -1427 -3 2 30 46 73 98
204 245 602 786 908 1234 37 55 92 134 120 175 29 41 147 217 262 390 934
1401 1593 2556 1736 3040 14 47 28 97 31 113 4 15 8 27 10 27 3 0 29 -26 59
-57z m225 -2320 c189 -278 301 -778 263 -1173 -7 -69 -17 -147 -23 -175 -29
-145 -96 -320 -164 -434 l-33 -55 -21 50 c-12 27 -35 81 -51 121 -42 105 -139
307 -187 390 l-42 71 -140 -91 c-166 -109 -172 -113 -410 -254 -924 -548
-2324 -1302 -2357 -1270 -2 3 38 33 88 68 848 594 2175 1773 2760 2454 88 103
211 265 244 323 11 17 23 32 27 32 4 0 25 -26 46 -57z m-9643 -110 c22 -31 94
-110 159 -176 427 -428 1430 -1185 2301 -1736 99 -63 196 -124 215 -136 43
-28 322 -190 410 -239 36 -20 95 -53 133 -73 180 -99 -26 -48 -378 94 -88 35
-173 70 -190 77 -16 8 -41 17 -55 21 -14 4 -47 18 -75 30 -27 12 -90 39 -140
60 -49 21 -124 52 -165 70 -41 18 -176 76 -300 130 -233 101 -399 174 -678
301 -90 41 -165 74 -167 74 -4 0 -480 219 -634 291 -46 22 -86 38 -88 35 -6
-5 -122 -386 -169 -553 -15 -51 -31 -93 -35 -93 -20 0 -143 182 -193 285 -115
237 -166 464 -166 750 0 235 27 418 94 652 38 129 62 193 74 193 4 -1 25 -26
47 -57z m11955 -1515 c43 -200 57 -524 31 -718 -62 -465 -248 -848 -563 -1162
-161 -160 -148 -167 -148 74 0 302 -24 556 -57 589 -5 5 -36 0 -73 -12 -283
-89 -1334 -280 -2250 -408 -586 -82 -932 -119 -1186 -128 -113 -4 -183 -2
-187 4 -3 5 46 21 116 37 348 80 1272 385 1912 631 66 26 154 59 195 75 127
48 537 215 685 278 275 118 323 140 561 250 248 116 543 269 674 350 96 60
232 156 249 176 21 26 29 19 41 -36z m-11204 -364 c92 -55 288 -148 434 -206
327 -130 654 -244 975 -343 66 -20 154 -47 195 -60 41 -13 152 -44 245 -70 94
-25 208 -57 255 -70 47 -13 153 -38 235 -55 83 -18 154 -36 159 -40 23 -22
-849 31 -1259 75 -293 32 -545 67 -677 93 l-138 28 0 -36 c0 -19 7 -110 16
-202 8 -92 14 -177 12 -189 -3 -19 -13 -13 -103 54 -221 164 -337 372 -391
692 -15 92 -31 365 -22 365 3 0 32 -16 64 -36z m9773 -1405 c-49 -412 -247
-743 -564 -946 -58 -37 -165 -86 -165 -75 0 4 20 106 45 227 25 121 45 227 45
236 0 14 -27 17 -217 23 -770 25 -1500 89 -1798 158 -91 21 -187 58 -198 75
-4 6 74 12 201 17 711 22 1628 134 2220 270 155 36 383 100 412 116 27 16 31
-5 19 -101z m-10229 -410 c445 -171 1275 -340 2160 -438 436 -49 724 -71 938
-71 127 0 147 -5 119 -29 -38 -31 -374 -80 -762 -110 -71 -6 -188 -15 -260
-21 -345 -27 -734 -42 -1117 -44 -416 -1 -418 -1 -418 -22 0 -82 61 -374 99
-475 12 -30 21 -55 21 -56 0 -11 -45 2 -97 26 -94 45 -178 106 -277 201 -193
186 -332 405 -416 659 -51 151 -98 411 -75 411 3 0 41 -14 85 -31z m3281 -699
c-38 -33 -205 -117 -356 -180 -338 -141 -876 -319 -1042 -345 -27 -4 -43 -12
-43 -21 0 -38 108 -232 163 -291 11 -13 18 -25 16 -28 -12 -11 -152 38 -255
90 -158 79 -297 199 -394 340 -36 53 -85 149 -93 185 l-6 25 267 1 c266 1 374
9 760 59 324 42 966 165 990 190 3 3 10 5 16 5 6 -1 -4 -14 -23 -30z"/>
</g>
</svg>
